<?xml version="1.0" ?><svg enable-background="new 0 0 212 212" id="wunderlist" version="1.1" viewBox="0 0 212 212" xml:space="preserve" xmlns="http://www.w3.org/2000/svg" xmlns:xlink="http://www.w3.org/1999/xlink"><g><path d="M172,0H40C17.9453,0,0,17.9453,0,40.002V172c0,22.0547,17.9453,40,40,40h132c22.0547,0,40-17.9453,40-40   V40.002C212,17.9453,194.0547,0,172,0z" fill="#314E55"/><path d="M204,172c0,17.6445-14.3555,32-32,32H40c-17.6445,0-32-14.3555-32-32V40.002C8,22.3555,22.3555,8,40,8h132   c17.6445,0,32,14.3555,32,32.002V172z" fill="#C59981"/><path d="M167.9727,20H160H52h-7.9727C30.7773,20,20,30.7793,20,44.0273v123.9453   C20,181.2227,30.7773,192,44.0273,192h123.9453C181.2227,192,192,181.2227,192,167.9727V44.0273   C192,30.7793,181.2227,20,167.9727,20z" fill="#314E55"/><path d="M156,28v153.8438l-48.375-21.5C107.1055,160.1133,106.5547,160,106,160s-1.1055,0.1133-1.625,0.3438   L56,181.8438V28H156z" fill="#E65F58"/><polygon fill="#D8D8D8" points="141.1482,184 70.8518,184 106,168.3789  "/><path d="M28,167.9727V44.0273C28,35.1895,35.1914,28,44.0273,28H48v156h-3.9727   C35.1914,184,28,176.8086,28,167.9727z" fill="#D8D8D8"/><path d="M184,167.9727C184,176.8086,176.8086,184,167.9727,184H164V28h3.9727C176.8086,28,184,35.1895,184,44.0273   V167.9727z" fill="#D8D8D8"/><path d="M87.4375,88.0312l-3.0117,17.5625c-0.2578,1.5,0.3594,3.0156,1.5898,3.9102   c1.2383,0.8984,2.875,1.0195,4.2109,0.3047L106,101.5195l15.7734,8.2891c0.582,0.3086,1.2227,0.4609,1.8594,0.4609   c0.8281,0,1.6562-0.2578,2.3516-0.7656c1.2305-0.8945,1.8477-2.4102,1.5898-3.9102l-3.0117-17.5625l12.7617-12.4355   c1.0898-1.0645,1.4805-2.6523,1.0117-4.1016c-0.4727-1.4473-1.7227-2.5039-3.2305-2.7227l-17.6328-2.5625l-7.8867-15.9785   c-1.3438-2.7305-5.8281-2.7305-7.1719,0L94.5273,66.209l-17.6328,2.5625c-1.5078,0.2188-2.7578,1.2754-3.2305,2.7227   c-0.4688,1.4492-0.0781,3.0371,1.0117,4.1016L87.4375,88.0312z" fill="#314E55"/><path d="M97.7578,73.8242c1.3047-0.1895,2.4297-1.0078,3.0117-2.1895L106,61.0391l5.2305,10.5957   c0.582,1.1816,1.707,2,3.0117,2.1895l11.6914,1.6992l-8.4609,8.2461c-0.9414,0.9199-1.3711,2.2441-1.1484,3.541l1.9961,11.6465   l-10.4609-5.498C107.2773,93.1523,106.6406,93,106,93s-1.2773,0.1523-1.8594,0.459l-10.4609,5.498l1.9961-11.6465   c0.2227-1.2969-0.207-2.6211-1.1484-3.541l-8.4609-8.2461L97.7578,73.8242z" fill="#D8D8D8"/></g></svg>